<?xml version="1.0" encoding="utf-8"?>
<!-- Generator: Adobe Illustrator 16.0.0, SVG Export Plug-In . SVG Version: 6.00 Build 0)  -->
<!DOCTYPE svg PUBLIC "-//W3C//DTD SVG 1.1//EN" "http://www.w3.org/Graphics/SVG/1.1/DTD/svg11.dtd">
<svg version="1.1" id="Layer_1" xmlns="http://www.w3.org/2000/svg" xmlns:xlink="http://www.w3.org/1999/xlink" x="0px" y="0px"
	 width="320px" height="189.581px" viewBox="0 0 320 189.581" enable-background="new 0 0 320 189.581" xml:space="preserve">
<g>
	<circle fill="none" stroke="#BABABA" stroke-width="7" stroke-miterlimit="10" cx="160.2" cy="94.721" r="79.481"/>
	<g>
		<g id="XMLID_1_">
			<g>
				<path fill="#BABABA" d="M204.999,89.941c1.217,1.342,1.265,2.699,0.166,3.837c-1.318,1.367-2.719,1.44-4.183,0.312
					c-3.644-2.816-7.744-4.621-12.185-5.842c-2.85-0.778-5.695-1.07-8.608-1.143c-1.635-0.039-2.904-1.425-2.924-3.104
					c-0.015-1.439,1.343-2.835,2.885-2.938c0.501-0.034,1.007-0.005,1.508-0.005c0.015-0.083,0.034-0.161,0.049-0.238
					c3.512,0.667,7.105,1.045,10.506,2.082c4.173,1.27,8.107,3.239,11.6,5.949C204.236,89.183,204.64,89.547,204.999,89.941z"/>
				<path fill="#BABABA" d="M159.173,110.481c3.273-0.272,6.25,0.418,8.959,1.873c3.497,1.877,6.4,4.484,8.303,8.054
					c0.248,0.467,0.408,0.982,0.617,1.474c0.608,1.396-0.646,3.396-2.174,3.629c-1.683,0.258-2.607-0.643-3.419-1.902
					c-0.739-1.147-1.488-2.301-2.354-3.356c-1.979-2.407-4.728-3.497-7.689-3.925c-3.113-0.453-6.138,0.053-8.906,1.673
					c-2.199,1.289-3.799,3.088-4.811,5.462c-0.549,1.274-1.449,2.198-3.088,2.063c-1.868-0.142-3.239-2.16-2.52-3.892
					c1.761-4.222,4.674-7.334,8.833-9.304C153.594,111.07,156.303,110.116,159.173,110.481z"/>
				<path fill="#BABABA" d="M130.89,81.979c3.069-0.803,6.201-1.425,9.426-1.299c1.775,0.073,3.123,1.289,3.147,2.972
					c0.029,1.688-1.293,3.084-3.049,3.055c-3.74-0.063-7.354,0.666-10.847,1.863c-3.512,1.201-6.809,2.899-9.825,5.117
					c-0.593,0.433-1.357,0.637-1.722,0.798c-1.771-0.039-2.554-0.968-3.074-2.009c-0.481-0.963-0.272-2.023,0.652-2.719
					c1.81-1.362,3.624-2.733,5.521-3.974C124.095,83.837,127.5,82.864,130.89,81.979z"/>
			</g>
			<g>
			</g>
		</g>
	</g>
</g>
</svg>
