<?xml version="1.0" encoding="utf-8"?>
<!-- Generator: Adobe Illustrator 16.0.0, SVG Export Plug-In . SVG Version: 6.00 Build 0)  -->
<!DOCTYPE svg PUBLIC "-//W3C//DTD SVG 1.1//EN" "http://www.w3.org/Graphics/SVG/1.1/DTD/svg11.dtd">
<svg version="1.1" id="Layer_1" xmlns="http://www.w3.org/2000/svg" xmlns:xlink="http://www.w3.org/1999/xlink" x="0px" y="0px"
	 width="165px" height="37.333px" viewBox="26.77 93.433 165 37.333" enable-background="new 26.77 93.433 165 37.333"
	 xml:space="preserve">
<text transform="matrix(1 0 0 1 34.9668 116.1807)" fill="#FFFFFF" font-family="'Futura'" font-size="25">WALKEASE</text>
<g>
	<g id="XMLID_1_">
		<g>
			<path fill="#FFFFFF" d="M179.202,101.802c0.31-0.33,0.65-0.62,1.04-0.84c0.06-0.04,0.14-0.061,0.21-0.05
				c0.37,0.039,0.68,0.199,0.97,0.42c0.45,0.35,0.79,0.79,1.101,1.26c0.8,1.24,1.069,2.56,0.68,4.01c-0.19,0.7-0.64,1.17-1.3,1.43
				c-1.061,0.41-2.07,0.25-3.03-0.279c-0.16-0.08-0.32-0.181-0.41-0.311c-0.43-0.59-0.64-1.26-0.67-1.979
				C177.751,104.042,178.272,102.842,179.202,101.802z"/>
			<path fill="#FFFFFF" d="M179.572,109.962c0.45,0.89,0.55,1.85,0.319,2.819c-0.149,0.66-0.439,1.261-0.949,1.71
				c-0.66,0.58-1.4,1.011-2.19,1.36c-0.96,0.41-1.95,0.71-2.979,0.85c-0.92,0.131-1.851,0.131-2.771,0.061
				c-1.41-0.11-2.74-0.44-3.95-1.2c-0.47-0.3-0.93-0.61-1.27-1.06c-0.84-1.141-1.08-2.391-0.73-3.75
				c0.181-0.73,0.57-1.32,1.221-1.71c0.359-0.221,0.72-0.44,1.09-0.65c0.58-0.33,1.09-0.729,1.45-1.28
				c0.279-0.439,0.529-0.89,0.8-1.33c0.25-0.39,0.529-0.76,0.96-0.979c1.25-0.65,2.78-0.21,3.63,0.47c0.55,0.44,0.97,1,1.42,1.54
				c0.33,0.39,0.67,0.78,1.18,0.95c0.061,0.02,0.12,0.06,0.19,0.09c0.66,0.33,1.31,0.7,1.87,1.2c0.01,0,0.02-0.01,0.029-0.021
				C179.122,109.342,179.402,109.622,179.572,109.962z"/>
			<path fill="#FFFFFF" d="M176.072,97.071c0.38,0.37,0.77,0.74,1.1,1.15c0.74,0.9,1.07,1.95,0.97,3.11
				c-0.039,0.51-0.189,0.989-0.52,1.399c-0.38,0.46-0.9,0.69-1.47,0.75c-0.511,0.061-1.03,0.04-1.54,0.061
				c-0.391,0.01-0.721-0.141-1.01-0.41c-0.271-0.26-0.45-0.57-0.521-0.94c-0.11-0.56-0.14-1.12-0.09-1.68
				c0.09-1.05,0.439-2.01,0.99-2.91c0.18-0.3,0.35-0.61,0.62-0.83c0.279-0.229,0.59-0.27,0.899-0.09
				C175.702,96.792,175.912,96.912,176.072,97.071z"/>
			<path fill="#FFFFFF" d="M169.862,96.762c0.45,0.32,0.76,0.78,1.05,1.229c0.32,0.49,0.53,1.04,0.69,1.601
				c0.26,0.89,0.34,1.79,0.1,2.7c-0.09,0.35-0.28,0.6-0.55,0.8c-0.91,0.66-1.9,0.76-2.94,0.37c-0.68-0.25-1.14-0.73-1.34-1.44
				c-0.13-0.479-0.19-0.97-0.15-1.47c0.101-1.2,0.62-2.23,1.471-3.21c0.1-0.101,0.27-0.28,0.46-0.44c0.13-0.12,0.27-0.239,0.42-0.3
				C169.352,96.502,169.622,96.592,169.862,96.762z"/>
			<path fill="#FFFFFF" d="M165.372,101.781c0.61,0.521,1.07,1.16,1.41,1.891c0.439,0.939,0.59,1.91,0.31,2.93
				c-0.09,0.3-0.2,0.58-0.43,0.82c-0.34,0.359-0.771,0.569-1.25,0.68c-0.68,0.14-1.36,0.08-2.021-0.08
				c-0.039-0.01-0.09-0.03-0.119-0.05c-0.391-0.25-0.721-0.55-0.99-0.93c-0.54-0.78-0.61-1.61-0.33-2.5
				c0.3-0.94,0.84-1.73,1.51-2.44c0.12-0.12,0.23-0.24,0.351-0.37c0.319-0.34,0.829-0.42,1.239-0.18
				C165.162,101.611,165.272,101.701,165.372,101.781z"/>
		</g>
		<g>
		</g>
	</g>
</g>
<rect x="25.175" y="91.932" fill="none" width="263.702" height="65.754"/>
</svg>
